<svg width="18" height="17" viewBox="0 0 18 17" fill="none" xmlns="http://www.w3.org/2000/svg">
<path d="M9.00001 0.770086L9.00636 0.750758C9.00661 0.750838 9.00473 0.750279 9.00143 0.748051C9.00096 0.747733 9.00048 0.747398 9.00001 0.747048C8.99953 0.747398 8.99906 0.747733 8.99858 0.748051C8.99567 0.750017 8.99387 0.750683 8.99366 0.750758L9.00001 0.770086ZM9.00001 0.770086L10.6081 5.66411C10.8095 6.27702 11.3835 6.68444 12.0228 6.68444H17.2032M9.00001 0.770086L7.39189 5.66411C7.19049 6.27702 6.61651 6.68444 5.9772 6.68444H0.796817M17.2032 6.68444L13.0195 9.69017C12.4972 10.0654 12.2744 10.7352 12.4763 11.3496L14.0789 16.2267M17.2032 6.68444H17.2603C17.2698 6.68444 17.2712 6.68579 17.2674 6.68449C17.2652 6.68375 17.2627 6.68264 17.2603 6.68122C17.2587 6.68029 17.2571 6.67923 17.2555 6.67806C17.2525 6.67572 17.2508 6.67386 17.25 6.67279C17.2499 6.67094 17.2501 6.66704 17.2518 6.66101C17.2533 6.65617 17.2554 6.6515 17.2578 6.64757C17.2584 6.64654 17.259 6.64556 17.2597 6.64465C17.2599 6.64434 17.2601 6.64406 17.2603 6.6438C17.2614 6.64227 17.2621 6.6416 17.262 6.6417C17.262 6.64178 17.2614 6.64231 17.2603 6.64325C17.2594 6.64396 17.2582 6.64489 17.2567 6.64603L17.2032 6.68444ZM0.796817 6.68444L0.743355 6.64603C0.741764 6.64489 0.740573 6.64395 0.739721 6.64325C0.738505 6.64224 0.737981 6.6417 0.737976 6.64169C0.737971 6.64168 0.738636 6.64235 0.739721 6.6438C0.739913 6.64406 0.740119 6.64434 0.740336 6.64465C0.740988 6.64556 0.741629 6.64654 0.742251 6.64757C0.744634 6.6515 0.746748 6.65617 0.748177 6.66101C0.749958 6.66704 0.750088 6.67093 0.749977 6.67279C0.749181 6.67386 0.747535 6.67571 0.74447 6.67806C0.742939 6.67923 0.74133 6.68029 0.739721 6.68122C0.737266 6.68264 0.73481 6.68375 0.732623 6.68449C0.73134 6.68492 0.730649 6.68506 0.73065 6.68506C0.730652 6.68504 0.73341 6.68444 0.739721 6.68444H0.796817ZM0.796817 6.68444L4.98056 9.69017C5.50282 10.0654 5.7256 10.7352 5.52369 11.3496L3.92115 16.2267M3.92115 16.2267L3.89124 16.2482C3.88435 16.2531 3.88282 16.2527 3.88667 16.2516C3.88856 16.251 3.89065 16.2505 3.89277 16.2503C3.89467 16.2501 3.8966 16.25 3.89842 16.25C3.89845 16.25 3.89848 16.25 3.8985 16.25C3.89918 16.2514 3.89994 16.2531 3.9007 16.2551C3.90182 16.2582 3.90271 16.2616 3.90331 16.265C3.90387 16.2681 3.90418 16.2712 3.90423 16.2742C3.90424 16.2744 3.90424 16.2746 3.90424 16.2748C3.90425 16.278 3.90396 16.2796 3.90396 16.2796C3.90396 16.2796 3.90422 16.2782 3.90522 16.2752L3.90692 16.27L3.92115 16.2267ZM3.92115 16.2267L8.12844 13.204C8.6487 12.8303 9.35132 12.8303 9.87157 13.204L14.0789 16.2267M14.0789 16.2267L14.0931 16.27L14.0948 16.2752C14.0957 16.2778 14.096 16.2792 14.096 16.2796C14.0961 16.2801 14.0958 16.2784 14.0958 16.2748C14.0958 16.2746 14.0958 16.2744 14.0958 16.2742C14.0958 16.2712 14.0961 16.2681 14.0967 16.265C14.0973 16.2616 14.0982 16.2582 14.0993 16.2551C14.1001 16.2531 14.1008 16.2514 14.1015 16.25C14.1015 16.25 14.1016 16.25 14.1016 16.25C14.1034 16.25 14.1053 16.2501 14.1072 16.2503C14.1094 16.2506 14.1115 16.251 14.1133 16.2516C14.1143 16.2518 14.1149 16.2521 14.1152 16.2522C14.1161 16.2526 14.1139 16.2519 14.1088 16.2482L14.0789 16.2267Z" stroke="#FFDD2D" stroke-width="1.5"/>
</svg>
