<svg width="23" height="23" viewBox="0 0 22 22" fill="none" xmlns="http://www.w3.org/2000/svg">
<path d="M10.9071 0.932388C10.9071 0.932389 10.9071 0.932439 10.9072 0.932541L10.9071 0.932388ZM9.11472 7.02059L11 1.2183L12.8853 7.02059C13.14 7.80441 13.8704 8.3351 14.6945 8.3351H20.7954L15.8597 11.9211C15.193 12.4055 14.914 13.2642 15.1686 14.048L17.0539 19.8503L12.1182 16.2643C11.4514 15.7799 10.5486 15.7799 9.88181 16.2643L4.94609 19.8503L6.83137 14.048C7.08605 13.2642 6.80705 12.4055 6.14029 11.9211L1.20457 8.3351H7.30546C8.12961 8.3351 8.86004 7.80441 9.11472 7.02059ZM17.1468 20.1361C17.1468 20.1361 17.1468 20.1361 17.1468 20.1361L17.1468 20.1361Z" stroke="#979797" stroke-width="2"/>
</svg>