<svg version="1.1" xmlns="http://www.w3.org/2000/svg" xmlns:xlink="http://www.w3.org/1999/xlink" width="791.908px" height="791.908px" viewBox="0,0,256,256"><g fill="#979797" fill-rule="nonzero" stroke="none" stroke-width="1" stroke-linecap="butt" stroke-linejoin="miter" stroke-miterlimit="10" stroke-dasharray="" stroke-dashoffset="0" font-family="none" font-weight="none" font-size="none" text-anchor="none" style="mix-blend-mode: normal"><g transform="translate(-0.00016,0) scale(0.32327,0.32327)"><g><path d="M648.587,99.881h-139.431c-8.88,-56.395 -56.395,-99.881 -114.712,-99.881c-58.317,0 -106.748,43.486 -114.713,99.881h-137.416c-26.733,0 -48.43,21.789 -48.43,48.43v49.437c0,24.719 17.761,44.493 41.564,47.423v482.469c0,35.613 28.655,64.268 64.268,64.268h392.475c35.613,0 64.268,-28.655 64.268,-64.268v-481.553c23.711,-3.937 41.564,-23.711 41.564,-47.423v-49.437c-1.007,-27.557 -22.796,-49.346 -49.437,-49.346zM394.444,36.62c38.543,0 70.219,26.733 77.085,63.261h-155.178c7.874,-35.613 39.55,-63.261 78.093,-63.261zM618.924,728.739c0,14.831 -11.901,27.648 -27.648,27.648h-392.566c-14.831,0 -27.648,-11.901 -27.648,-27.648v-481.554h446.948v481.554zM660.397,197.748c0,6.958 -4.944,11.902 -11.902,11.902h-506.272c-6.958,0 -11.902,-4.944 -11.902,-11.902v-49.437c0,-6.958 4.944,-11.902 11.902,-11.902h505.265c6.958,0 11.901,4.944 11.901,11.902v49.437zM253.09,661.45v-312.369c0,-9.887 7.873,-17.761 17.761,-17.761c9.888,0 17.761,7.873 17.761,17.761v312.369c0,9.887 -7.873,17.761 -17.761,17.761c-9.887,1.098 -17.761,-7.874 -17.761,-17.761zM378.606,661.45v-312.369c0,-9.887 7.873,-17.761 17.761,-17.761c9.887,0 17.761,7.873 17.761,17.761v312.369c0,9.887 -7.873,17.761 -17.761,17.761c-9.797,1.098 -17.761,-7.874 -17.761,-17.761zM504.212,661.45v-312.369c0,-9.887 7.873,-17.761 17.761,-17.761c9.888,0 17.761,7.873 17.761,17.761v312.369c0,9.887 -7.873,17.761 -17.761,17.761c-8.88,1.098 -17.761,-7.874 -17.761,-17.761z"></path></g><g font-family="Inter, apple-system, BlinkMacSystemFont, &quot;Helvetica Neue&quot;, &quot;Segoe UI&quot;, &quot;Fira Sans&quot;, Roboto, Oxygen, Ubuntu, &quot;Droid Sans&quot;, Arial, sans-serif" font-weight="400" font-size="16" text-anchor="start"></g><g font-family="Inter, apple-system, BlinkMacSystemFont, &quot;Helvetica Neue&quot;, &quot;Segoe UI&quot;, &quot;Fira Sans&quot;, Roboto, Oxygen, Ubuntu, &quot;Droid Sans&quot;, Arial, sans-serif" font-weight="400" font-size="16" text-anchor="start"></g><g font-family="Inter, apple-system, BlinkMacSystemFont, &quot;Helvetica Neue&quot;, &quot;Segoe UI&quot;, &quot;Fira Sans&quot;, Roboto, Oxygen, Ubuntu, &quot;Droid Sans&quot;, Arial, sans-serif" font-weight="400" font-size="16" text-anchor="start"></g><g font-family="Inter, apple-system, BlinkMacSystemFont, &quot;Helvetica Neue&quot;, &quot;Segoe UI&quot;, &quot;Fira Sans&quot;, Roboto, Oxygen, Ubuntu, &quot;Droid Sans&quot;, Arial, sans-serif" font-weight="400" font-size="16" text-anchor="start"></g><g font-family="Inter, apple-system, BlinkMacSystemFont, &quot;Helvetica Neue&quot;, &quot;Segoe UI&quot;, &quot;Fira Sans&quot;, Roboto, Oxygen, Ubuntu, &quot;Droid Sans&quot;, Arial, sans-serif" font-weight="400" font-size="16" text-anchor="start"></g><g font-family="Inter, apple-system, BlinkMacSystemFont, &quot;Helvetica Neue&quot;, &quot;Segoe UI&quot;, &quot;Fira Sans&quot;, Roboto, Oxygen, Ubuntu, &quot;Droid Sans&quot;, Arial, sans-serif" font-weight="400" font-size="16" text-anchor="start"></g><g font-family="Inter, apple-system, BlinkMacSystemFont, &quot;Helvetica Neue&quot;, &quot;Segoe UI&quot;, &quot;Fira Sans&quot;, Roboto, Oxygen, Ubuntu, &quot;Droid Sans&quot;, Arial, sans-serif" font-weight="400" font-size="16" text-anchor="start"></g><g font-family="Inter, apple-system, BlinkMacSystemFont, &quot;Helvetica Neue&quot;, &quot;Segoe UI&quot;, &quot;Fira Sans&quot;, Roboto, Oxygen, Ubuntu, &quot;Droid Sans&quot;, Arial, sans-serif" font-weight="400" font-size="16" text-anchor="start"></g><g font-family="Inter, apple-system, BlinkMacSystemFont, &quot;Helvetica Neue&quot;, &quot;Segoe UI&quot;, &quot;Fira Sans&quot;, Roboto, Oxygen, Ubuntu, &quot;Droid Sans&quot;, Arial, sans-serif" font-weight="400" font-size="16" text-anchor="start"></g><g font-family="Inter, apple-system, BlinkMacSystemFont, &quot;Helvetica Neue&quot;, &quot;Segoe UI&quot;, &quot;Fira Sans&quot;, Roboto, Oxygen, Ubuntu, &quot;Droid Sans&quot;, Arial, sans-serif" font-weight="400" font-size="16" text-anchor="start"></g><g font-family="Inter, apple-system, BlinkMacSystemFont, &quot;Helvetica Neue&quot;, &quot;Segoe UI&quot;, &quot;Fira Sans&quot;, Roboto, Oxygen, Ubuntu, &quot;Droid Sans&quot;, Arial, sans-serif" font-weight="400" font-size="16" text-anchor="start"></g><g font-family="Inter, apple-system, BlinkMacSystemFont, &quot;Helvetica Neue&quot;, &quot;Segoe UI&quot;, &quot;Fira Sans&quot;, Roboto, Oxygen, Ubuntu, &quot;Droid Sans&quot;, Arial, sans-serif" font-weight="400" font-size="16" text-anchor="start"></g><g font-family="Inter, apple-system, BlinkMacSystemFont, &quot;Helvetica Neue&quot;, &quot;Segoe UI&quot;, &quot;Fira Sans&quot;, Roboto, Oxygen, Ubuntu, &quot;Droid Sans&quot;, Arial, sans-serif" font-weight="400" font-size="16" text-anchor="start"></g><g font-family="Inter, apple-system, BlinkMacSystemFont, &quot;Helvetica Neue&quot;, &quot;Segoe UI&quot;, &quot;Fira Sans&quot;, Roboto, Oxygen, Ubuntu, &quot;Droid Sans&quot;, Arial, sans-serif" font-weight="400" font-size="16" text-anchor="start"></g><g font-family="Inter, apple-system, BlinkMacSystemFont, &quot;Helvetica Neue&quot;, &quot;Segoe UI&quot;, &quot;Fira Sans&quot;, Roboto, Oxygen, Ubuntu, &quot;Droid Sans&quot;, Arial, sans-serif" font-weight="400" font-size="16" text-anchor="start"></g></g></g></svg>